<?xml version="1.0" encoding="UTF-8"?>
<svg width="50px" height="50px" viewBox="0 0 50 50" version="1.1" xmlns="http://www.w3.org/2000/svg" xmlns:xlink="http://www.w3.org/1999/xlink">
    <!-- Generator: Sketch 52.2 (67145) - http://www.bohemiancoding.com/sketch -->
    <title>Priority 2_icon</title>
    <desc>Created with Sketch.</desc>
    <g id="Page-1" stroke="none" stroke-width="1" fill="none" fill-rule="evenodd">
        <g id="报警列表" transform="translate(-15.000000, -222.000000)">
            <g id="Priority-2_icon" transform="translate(15.000000, 222.000000)">
                <path d="M26.59375,30.09375 L26.59375,18.375 C26.59375,17.3124947 26.0312556,16.7500003 24.90625,16.6875 C23.8437447,16.7500003 23.3437497,17.3124947 23.40625,18.375 L23.40625,30.09375 C23.3437497,31.2187556 23.8437447,31.78125 24.90625,31.78125 C26.0312556,31.78125 26.59375,31.2187556 26.59375,30.09375 Z M18.71875,32.34375 L18.71875,31.78125 C19.8437556,31.8437503 20.40625,31.2812559 20.40625,30.09375 L20.40625,18.375 C20.40625,17.374995 19.8750053,16.8437503 18.8125,16.78125 C18.7499997,16.78125 18.71875,16.7500003 18.71875,16.6875 L18.71875,16.125 L31.28125,16.125 L31.28125,16.6875 C31.2187497,16.7500003 31.1562503,16.78125 31.09375,16.78125 C30.0312447,16.78125 29.5312497,17.3124947 29.59375,18.375 L29.59375,30.09375 C29.4687494,31.2812559 30.0624934,31.8437503 31.375,31.78125 L31.375,32.34375 L18.71875,32.34375 Z" id="Ⅱ" fill="#FFB356"></path>
                <rect id="矩形-copy" stroke="#FFB356" stroke-width="2" x="1" y="1" width="48" height="48" rx="24"></rect>
            </g>
        </g>
    </g>
</svg>