<?xml version="1.0" encoding="UTF-8"?>
<svg width="50px" height="50px" viewBox="0 0 50 50" version="1.1" xmlns="http://www.w3.org/2000/svg" xmlns:xlink="http://www.w3.org/1999/xlink">
    <!-- Generator: Sketch 52.2 (67145) - http://www.bohemiancoding.com/sketch -->
    <title>Priority 4_icon</title>
    <desc>Created with Sketch.</desc>
    <g id="Page-1" stroke="none" stroke-width="1" fill="none" fill-rule="evenodd">
        <g id="报警列表" transform="translate(-15.000000, -381.000000)">
            <g id="Priority-4_icon" transform="translate(15.000000, 381.000000)">
                <path d="M28.09375,16.21875 L28.09375,16.78125 C26.9062441,16.78125 26.4062491,17.1249966 26.59375,17.8125 C26.59375,18.3750028 26.7812481,19.0624959 27.15625,19.875 L29.40625,27.46875 L31.5625,19.5 C31.7500009,18.9374972 31.8749997,18.4062525 31.9375,17.90625 C32.0000003,17.2187466 31.5000053,16.8437503 30.4375,16.78125 L30.4375,16.21875 L34.1875,16.21875 L34.1875,16.78125 C33.3749959,16.8437503 32.8437512,17.4999938 32.59375,18.75 L28.65625,32.8125 L28.1875,32.8125 L23.6875,18.46875 C23.4374987,17.4062447 23.0000031,16.8437503 22.375,16.78125 C20.8749925,16.6562494 20.1874994,17.2187438 20.3125,18.46875 L20.3125,30.09375 C20.1874994,31.2812559 20.7187441,31.8437503 21.90625,31.78125 L21.90625,32.4375 L15.8125,32.4375 L15.8125,31.78125 C16.9375056,31.8437503 17.5,31.2812559 17.5,30.09375 L17.5,18.46875 C17.5,17.2812441 16.9375056,16.7187497 15.8125,16.78125 L15.8125,16.21875 L28.09375,16.21875 Z" id="Ⅳ" fill="#4A90E2"></path>
                <rect id="矩形-copy-6" stroke="#4A90E2" stroke-width="2" x="1" y="1" width="48" height="48" rx="24"></rect>
            </g>
        </g>
    </g>
</svg>