<?xml version="1.0" encoding="UTF-8"?>
<svg width="14px" height="14px" viewBox="0 0 14 14" version="1.1" xmlns="http://www.w3.org/2000/svg" xmlns:xlink="http://www.w3.org/1999/xlink">
    <!-- Generator: Sketch 52.2 (67145) - http://www.bohemiancoding.com/sketch -->
    <title>Alarm time_icon</title>
    <desc>Created with Sketch.</desc>
    <g id="Page-1" stroke="none" stroke-width="1" fill="none" fill-rule="evenodd">
        <g id="报警列表" transform="translate(-80.000000, -177.000000)">
            <g id="Alarm-time_icon" transform="translate(80.000000, 177.000000)">
                <path d="M7,12.34375 C9.95136719,12.34375 12.34375,9.95136719 12.34375,7 C12.34375,4.04863281 9.95136719,1.65625 7,1.65625 C4.04863281,1.65625 1.65625,4.04863281 1.65625,7 C1.65625,9.95136719 4.04863281,12.34375 7,12.34375 Z M7,13.46875 C3.428125,13.46875 0.53125,10.571875 0.53125,7 C0.53125,3.428125 3.428125,0.53125 7,0.53125 C10.571875,0.53125 13.46875,3.428125 13.46875,7 C13.46875,10.571875 10.571875,13.46875 7,13.46875 Z M7,1.09375 C7.1546875,1.09375 7.28125,1.2203125 7.28125,1.375 L7.28125,2.78125 C7.28125,2.9359375 7.1546875,3.0625 7,3.0625 C6.8453125,3.0625 6.71875,2.9359375 6.71875,2.78125 L6.71875,1.375 C6.71875,1.2203125 6.8453125,1.09375 7,1.09375 Z M7,10.9375 C7.1546875,10.9375 7.28125,11.0640625 7.28125,11.21875 L7.28125,12.625 C7.28125,12.7796875 7.1546875,12.90625 7,12.90625 C6.8453125,12.90625 6.71875,12.7796875 6.71875,12.625 L6.71875,11.21875 C6.71875,11.0640625 6.8453125,10.9375 7,10.9375 Z M12.90625,7 C12.90625,7.1546875 12.7796875,7.28125 12.625,7.28125 L11.21875,7.28125 C11.0640625,7.28125 10.9375,7.1546875 10.9375,7 C10.9375,6.8453125 11.0640625,6.71875 11.21875,6.71875 L12.625,6.71875 C12.7796875,6.71875 12.90625,6.8453125 12.90625,7 Z M1.09375,7 C1.09375,6.8453125 1.2203125,6.71875 1.375,6.71875 L2.78125,6.71875 C2.9359375,6.71875 3.0625,6.8453125 3.0625,7 C3.0625,7.1546875 2.9359375,7.28125 2.78125,7.28125 L1.375,7.28125 C1.2203125,7.28125 1.09375,7.1546875 1.09375,7 Z" id="形状" fill="#BBBBBB" fill-rule="nonzero"></path>
                <path d="M7.5625,6.4375 L8.40625,6.4375 C8.71738281,6.4375 8.96875,6.68886719 8.96875,7 C8.96875,7.31113281 8.71738281,7.5625 8.40625,7.5625 L7,7.5625 C6.8453125,7.5625 6.7046875,7.49921875 6.60273437,7.39726563 C6.50078125,7.2953125 6.4375,7.1546875 6.4375,7 L6.4375,4.75 C6.4375,4.43886719 6.68886719,4.1875 7,4.1875 C7.31113281,4.1875 7.5625,4.43886719 7.5625,4.75 L7.5625,6.4375 Z" id="路径" fill="#0076FF"></path>
            </g>
        </g>
    </g>
</svg>