<?xml version="1.0" encoding="UTF-8"?>
<svg width="50px" height="50px" viewBox="0 0 50 50" version="1.1" xmlns="http://www.w3.org/2000/svg" xmlns:xlink="http://www.w3.org/1999/xlink">
    <!-- Generator: Sketch 52.2 (67145) - http://www.bohemiancoding.com/sketch -->
    <title>Priority 3_icon</title>
    <desc>Created with Sketch.</desc>
    <g id="Page-1" stroke="none" stroke-width="1" fill="none" fill-rule="evenodd">
        <g id="报警列表" transform="translate(-15.000000, -301.000000)">
            <g id="Priority-3_icon" transform="translate(15.000000, 301.000000)">
                <path d="M23.5,30.09375 L23.5,18.375 C23.5,17.3124947 22.9375056,16.7500003 21.8125,16.6875 C20.7499947,16.7500003 20.2499997,17.3124947 20.3125,18.375 L20.3125,30.09375 C20.2499997,31.2187556 20.7812444,31.78125 21.90625,31.78125 C23.0312556,31.7187497 23.5625003,31.1562553 23.5,30.09375 Z M15.625,32.34375 L15.625,31.78125 C16.7500056,31.8437503 17.3125,31.2812559 17.3125,30.09375 L17.3125,18.375 C17.3125,17.374995 16.7812553,16.8437503 15.71875,16.78125 C15.6562497,16.78125 15.625,16.7500003 15.625,16.6875 L15.625,16.125 L34.375,16.125 L34.375,16.6875 C34.3124997,16.7500003 34.2500003,16.78125 34.1875,16.78125 C33.0624944,16.78125 32.5312497,17.3124947 32.59375,18.375 L32.59375,30.09375 C32.4687494,31.2812559 33.0624934,31.8437503 34.375,31.78125 L34.375,32.34375 L15.625,32.34375 Z M29.6875,30.09375 L29.6875,18.375 C29.6875,17.3124947 29.1250056,16.7500003 28,16.6875 C26.9374947,16.7500003 26.4374997,17.3124947 26.5,18.375 L26.5,30.09375 C26.4374997,31.2187556 26.9687444,31.78125 28.09375,31.78125 C29.1562553,31.78125 29.6875,31.2187556 29.6875,30.09375 Z" id="Ⅲ" fill="#FFD700"></path>
                <rect id="矩形-copy-5" stroke="#FFD700" stroke-width="2" x="1" y="1" width="48" height="48" rx="24"></rect>
            </g>
        </g>
    </g>
</svg>