<?xml version="1.0" encoding="UTF-8"?>
<svg width="50px" height="50px" viewBox="0 0 50 50" version="1.1" xmlns="http://www.w3.org/2000/svg" xmlns:xlink="http://www.w3.org/1999/xlink">
    <!-- Generator: Sketch 52.2 (67145) - http://www.bohemiancoding.com/sketch -->
    <title>Priority 5_icon</title>
    <desc>Created with Sketch.</desc>
    <g id="Page-1" stroke="none" stroke-width="1" fill="none" fill-rule="evenodd">
        <g id="报警列表" transform="translate(-15.000000, -461.000000)">
            <g id="Priority-5_icon" transform="translate(15.000000, 461.000000)">
                <path d="M33.25,16.40625 L33.25,16.96875 C32.1249944,17.0312503 31.4062516,17.6874938 31.09375,18.9375 L25.5625,33 L24.90625,33 L18.8125,18.65625 C18.3749978,17.5937447 17.6875047,17.0312503 16.75,16.96875 L16.75,16.40625 L24.8125,16.40625 L24.8125,16.96875 C23.2499922,16.96875 22.5624991,17.3124966 22.75,18 C22.75,18.4375022 22.9999975,19.1249953 23.5,20.0625 L26.59375,27.65625 L29.6875,19.78125 C29.6875,19.7187497 29.7187497,19.5937509 29.78125,19.40625 C30.0312513,18.7812469 30.15625,18.3437513 30.15625,18.09375 C30.2187503,17.4062466 29.5312572,17.0312503 28.09375,16.96875 L28.09375,16.40625 L33.25,16.40625 Z" id="Ⅴ" fill="#2BC1E6"></path>
                <rect id="矩形-copy-7" stroke="#2BC1E6" stroke-width="2" x="1" y="1" width="48" height="48" rx="24"></rect>
            </g>
        </g>
    </g>
</svg>